<?xml version="1.0" standalone="no"?><!DOCTYPE svg PUBLIC "-//W3C//DTD SVG 1.1//EN" "http://www.w3.org/Graphics/SVG/1.1/DTD/svg11.dtd"><svg t="1749911050446" class="icon" viewBox="0 0 1024 1024" version="1.1" xmlns="http://www.w3.org/2000/svg" p-id="5146" xmlns:xlink="http://www.w3.org/1999/xlink" width="200" height="200"><path d="M402.285714 914.249143a109.714286 109.714286 0 0 1 109.714286-109.714286 109.714286 109.714286 0 0 1 109.714286 109.714286 109.714286 109.714286 0 0 1-109.714286 109.714286 109.714286 109.714286 0 0 1-109.714286-109.714286z m0-402.285714a109.714286 109.714286 0 0 1 109.714286-109.714286 109.714286 109.714286 0 0 1 109.714286 109.714286 109.714286 109.714286 0 0 1-109.714286 109.714285 109.714286 109.714286 0 0 1-109.714286-109.714285z m0-402.285715a109.714286 109.714286 0 0 1 109.714286-109.714285 109.714286 109.714286 0 0 1 109.714286 109.714285 109.714286 109.714286 0 0 1-109.714286 109.714286 109.714286 109.714286 0 0 1-109.714286-109.714286z" fill="#A5A5A5" p-id="5147"></path></svg>